<svg viewBox="0 0 100 100" xmlns="http://www.w3.org/2000/svg" width="100" height="100">
  <defs>
    <linearGradient id="logoGradient" x1="0%" y1="0%" x2="100%" y2="100%">
      <stop offset="0%" style="stop-color:#6366f1;stop-opacity:1" />
      <stop offset="100%" style="stop-color:#a855f7;stop-opacity:1" />
    </linearGradient>
  </defs>
  <!-- Shield Background -->
  <path d="M 50 15 L 75 30 L 75 55 Q 75 80 50 92 Q 25 80 25 55 L 25 30 Z" fill="url(#logoGradient)" stroke="url(#logoGradient)" stroke-width="2" opacity="0.9"/>
  <path d="M 50 20 L 72 32 L 72 55 Q 72 78 50 88 Q 28 78 28 55 L 28 32 Z" fill="none" stroke="#fff" stroke-width="1.5" opacity="0.7"/>
  <!-- Lock Icon -->
  <g transform="translate(50, 50)">
    <rect x="-12" y="-8" width="24" height="20" rx="3" fill="none" stroke="#fff" stroke-width="2"/>
    <path d="M -8 -8 L -8 -15 Q -8 -20 0 -20 Q 8 -20 8 -15 L 8 -8" fill="none" stroke="#fff" stroke-width="2" stroke-linecap="round"/>
    <circle cx="0" cy="0" r="2" fill="#fff"/>
    <line x1="0" y1="4" x2="0" y2="10" stroke="#fff" stroke-width="1.5" stroke-linecap="round"/>
  </g>
</svg>
